<?xml version="1.0" standalone="no"?>
<!DOCTYPE svg PUBLIC "-//W3C//DTD SVG 20010904//EN"
 "http://www.w3.org/TR/2001/REC-SVG-20010904/DTD/svg10.dtd">
<svg version="1.0" xmlns="http://www.w3.org/2000/svg"
 width="133.000000pt" height="116.000000pt" viewBox="0 0 133.000000 116.000000"
 preserveAspectRatio="xMidYMid meet">
<metadata>
Created by potrace 1.10, written by Peter Selinger 2001-2011
</metadata>
<g transform="translate(0.000000,116.000000) scale(0.100000,-0.100000)"
fill="#000000" stroke="none">
<path d="M503 1089 c-55 -10 -164 -62 -188 -89 -21 -23 -12 -40 13 -22 185
131 413 118 571 -33 92 -88 127 -176 134 -337 3 -78 1 -88 -14 -88 -15 0 -17
14 -21 113 -3 95 -7 120 -30 170 -37 79 -114 157 -196 198 -63 32 -73 34 -172
34 -93 0 -112 -4 -163 -27 -81 -38 -168 -124 -203 -201 -25 -54 -29 -76 -32
-174 -3 -99 -6 -113 -21 -113 -15 0 -17 11 -13 98 4 119 30 204 83 274 27 36
36 55 28 63 -11 11 -33 -12 -76 -84 -45 -75 -63 -145 -63 -248 0 -80 -3 -96
-20 -113 -25 -25 -25 -48 -1 -74 12 -14 24 -57 35 -126 18 -112 35 -151 79
-184 28 -20 39 -21 365 -21 337 0 337 0 370 23 45 33 59 65 78 184 11 68 23
110 35 124 24 26 24 49 0 73 -15 15 -19 38 -23 134 -4 109 -6 120 -42 192 -96
195 -301 296 -513 254z m249 -111 c149 -69 227 -209 228 -410 0 -47 -1 -48
-31 -48 -27 0 -30 3 -23 22 16 51 0 109 -25 94 -7 -4 -7 -15 -1 -31 6 -15 5
-35 -1 -55 -11 -30 -11 -30 -89 -30 l-79 0 2 61 c2 55 5 64 29 82 25 18 31 19
69 8 58 -18 78 2 24 25 -45 19 -94 12 -120 -16 -17 -19 -18 -19 -51 8 -19 15
-34 36 -34 47 0 29 -19 45 -51 45 -30 0 -45 -15 -41 -41 2 -9 -13 -28 -32 -43
l-35 -27 -25 48 c-41 82 -95 114 -146 88 -37 -19 -42 -27 -42 -79 -1 -33 9
-62 40 -119 23 -42 42 -79 42 -82 0 -3 -32 -5 -71 -5 l-72 0 6 98 c6 122 32
193 94 262 84 93 174 131 298 127 60 -2 94 -10 137 -29z m-334 -236 c2 -7 -5
-16 -17 -19 -12 -3 -21 -12 -21 -19 0 -17 14 -18 40 -4 15 8 21 6 30 -9 15
-28 13 -39 -10 -46 -11 -3 -20 -13 -20 -22 0 -9 6 -13 15 -9 8 3 22 9 30 12
13 5 14 2 6 -17 -4 -13 -6 -39 -4 -56 5 -32 5 -33 -34 -33 l-39 0 -46 94 c-50
104 -54 150 -14 166 23 9 76 -15 84 -38z m202 -19 c0 -20 8 -33 29 -45 16 -9
37 -30 46 -47 18 -36 13 -39 -23 -11 l-25 20 -24 -22 -23 -22 -21 22 -20 22
-29 -20 c-15 -11 -31 -20 -34 -20 -16 0 27 61 54 77 30 17 34 24 31 56 -2 11
5 17 18 17 16 0 21 -6 21 -27z m-43 -145 l23 -21 24 22 c23 22 25 22 50 6 16
-11 26 -27 26 -41 0 -24 -1 -24 -100 -24 -99 0 -100 0 -100 24 0 13 10 30 23
39 29 20 27 21 54 -5z m491 -105 c-3 -17 -31 -18 -396 -21 -308 -2 -393 -5
-389 -15 3 -9 91 -13 379 -15 l375 -2 -6 -33 c-5 -22 -12 -32 -26 -32 -10 0
-20 -6 -22 -12 -3 -8 4 -13 16 -13 19 0 21 -4 15 -42 -9 -61 -40 -122 -71
-139 -21 -11 -90 -14 -347 -14 -295 0 -323 2 -348 18 -28 19 -52 73 -63 140
-5 33 -4 37 15 37 13 0 20 5 17 13 -2 6 -12 12 -22 12 -13 0 -21 10 -26 32 -6
31 -6 32 34 35 65 5 58 26 -10 30 -46 2 -59 7 -61 21 -3 16 24 17 468 17 444
0 471 -1 468 -17z"/>
<path d="M287 354 c-13 -13 5 -24 39 -24 24 0 34 4 32 13 -5 13 -60 22 -71 11z"/>
<path d="M430 346 c0 -12 10 -16 36 -16 45 0 42 24 -4 28 -24 2 -32 -1 -32
-12z"/>
<path d="M570 346 c0 -12 10 -16 36 -16 45 0 42 24 -4 28 -24 2 -32 -1 -32
-12z"/>
<path d="M707 353 c-15 -15 -5 -23 28 -23 24 0 35 5 35 15 0 15 -50 22 -63 8z"/>
<path d="M847 353 c-15 -15 -5 -23 28 -23 24 0 35 5 35 15 0 15 -50 22 -63 8z"/>
<path d="M225 270 c-4 -7 -3 -16 3 -22 14 -14 65 -1 59 15 -5 16 -53 21 -62 7z"/>
<path d="M355 270 c-11 -18 10 -32 41 -28 40 4 38 32 -3 36 -17 2 -34 -2 -38
-8z"/>
<path d="M495 270 c-11 -18 10 -32 41 -28 40 4 38 32 -3 36 -17 2 -34 -2 -38
-8z"/>
<path d="M635 270 c-11 -18 10 -32 41 -28 40 4 38 32 -3 36 -17 2 -34 -2 -38
-8z"/>
<path d="M775 270 c-4 -7 -3 -16 3 -22 14 -14 57 -6 57 12 0 18 -50 26 -60 10z"/>
<path d="M915 270 c-4 -7 -3 -16 3 -22 14 -14 57 -6 57 12 0 18 -50 26 -60 10z"/>
<path d="M285 190 c-3 -6 0 -13 9 -16 22 -8 59 -1 64 14 5 15 -64 17 -73 2z"/>
<path d="M430 184 c0 -11 8 -14 32 -12 46 4 49 28 4 28 -26 0 -36 -4 -36 -16z"/>
<path d="M570 184 c0 -11 8 -14 32 -12 46 4 49 28 4 28 -26 0 -36 -4 -36 -16z"/>
<path d="M702 188 c7 -20 68 -23 68 -4 0 12 -10 16 -36 16 -24 0 -34 -4 -32
-12z"/>
<path d="M842 188 c5 -15 67 -18 71 -3 1 6 -15 11 -37 13 -28 3 -37 0 -34 -10z"/>
</g>
</svg>
