<?xml version="1.0" standalone="no"?>
<!DOCTYPE svg PUBLIC "-//W3C//DTD SVG 20010904//EN"
 "http://www.w3.org/TR/2001/REC-SVG-20010904/DTD/svg10.dtd">
<svg version="1.0" xmlns="http://www.w3.org/2000/svg"
 width="117.000000pt" height="132.000000pt" viewBox="0 0 117.000000 132.000000"
 preserveAspectRatio="xMidYMid meet">
<metadata>
Created by potrace 1.10, written by Peter Selinger 2001-2011
</metadata>
<g transform="translate(0.000000,132.000000) scale(0.100000,-0.100000)"
fill="#000000" stroke="none">
<path d="M602 1129 c-25 -9 -25 -37 -1 -30 8 2 38 6 68 9 l53 5 -7 -34 c-15
-71 -51 -103 -127 -113 l-48 -6 0 33 c0 17 7 41 15 51 14 19 12 36 -5 36 -19
0 -34 -49 -41 -137 -5 -76 -12 -101 -37 -144 -26 -46 -31 -50 -40 -33 -5 10
-12 39 -15 62 -3 26 -15 54 -28 68 -40 42 -55 23 -19 -23 11 -14 20 -39 20
-54 0 -27 -3 -29 -35 -29 -65 0 -118 40 -128 98 l-7 32 51 0 c70 0 61 24 -11
28 -60 4 -73 -7 -64 -53 16 -90 55 -124 148 -133 33 -2 64 -10 68 -16 4 -6 8
-59 8 -118 0 -116 3 -109 -52 -112 -25 -2 -86 -65 -99 -103 -28 -86 1 -189 67
-239 32 -25 47 -29 99 -29 52 0 67 4 98 28 43 33 74 88 79 140 4 53 -14 49
-28 -6 -33 -130 -160 -180 -241 -94 -44 46 -55 72 -55 128 1 53 12 81 50 121
l25 27 42 -34 c50 -42 64 -43 95 -10 13 14 26 25 30 25 3 0 16 -18 29 -40 12
-22 29 -40 37 -40 20 0 18 10 -14 61 -24 38 -36 47 -80 59 -47 12 -52 16 -52
42 0 23 4 28 25 28 45 0 83 27 94 67 14 49 -1 67 -49 60 -19 -3 -43 -8 -52
-12 -27 -11 -22 10 13 61 41 59 59 106 59 150 0 33 2 36 23 31 69 -18 161 45
178 122 14 64 0 81 -64 80 -29 0 -63 -4 -75 -10z m-59 -466 c-11 -33 -36 -53
-65 -53 -27 0 -35 14 -20 36 11 17 45 33 69 34 17 0 21 -4 16 -17z m-54 -179
c3 -2 -2 -12 -11 -21 -15 -14 -19 -14 -47 6 -17 12 -31 25 -31 28 0 6 82 -5
89 -13z"/>
<path d="M330 343 c0 -44 21 -96 33 -83 3 3 2 32 -1 64 -9 75 -32 89 -32 19z"/>
</g>
</svg>
