<?xml version="1.0" standalone="no"?>
<!DOCTYPE svg PUBLIC "-//W3C//DTD SVG 20010904//EN"
 "http://www.w3.org/TR/2001/REC-SVG-20010904/DTD/svg10.dtd">
<svg version="1.0" xmlns="http://www.w3.org/2000/svg"
 width="172.000000pt" height="133.000000pt" viewBox="0 0 172.000000 133.000000"
 preserveAspectRatio="xMidYMid meet">
<metadata>
Created by potrace 1.10, written by Peter Selinger 2001-2011
</metadata>
<g transform="translate(0.000000,133.000000) scale(0.100000,-0.100000)"
fill="#000000" stroke="none">
<path d="M294 1095 c-5 -11 -21 -15 -61 -15 -72 0 -68 -24 5 -28 51 -3 52 -4
52 -33 0 -20 -4 -29 -12 -26 -7 2 -21 0 -30 -5 -14 -7 -18 -22 -18 -67 0 -74
20 -102 72 -104 40 -1 66 15 79 50 13 36 52 30 88 -14 l30 -37 -24 -32 c-21
-27 -25 -44 -25 -96 0 -68 10 -88 45 -88 32 0 45 19 45 65 0 38 4 43 39 63 21
12 44 22 50 22 16 0 14 -25 -4 -40 -8 -7 -15 -23 -15 -35 0 -12 7 -28 15 -35
17 -14 20 -51 4 -67 -6 -6 -9 -28 -7 -49 l3 -39 55 0 55 0 3 34 c2 18 -1 38
-7 44 -16 16 -13 67 4 73 17 7 21 59 5 69 -10 6 -14 45 -4 45 3 0 23 -10 44
-22 36 -21 40 -27 40 -63 0 -23 5 -46 12 -53 15 -15 51 -15 66 0 17 17 15 58
-3 58 -8 0 -15 -9 -15 -20 0 -11 -7 -20 -15 -20 -11 0 -15 12 -15 45 0 40 -4
48 -30 64 l-31 18 27 17 c25 17 26 17 42 -5 10 -13 19 -32 22 -42 8 -27 25
-25 28 3 2 17 -6 34 -23 50 -33 31 -32 40 8 78 39 38 74 42 86 9 13 -35 39
-51 79 -50 52 2 72 30 72 104 0 45 -4 60 -17 67 -10 5 -24 7 -30 5 -9 -3 -13
6 -13 26 0 29 1 30 52 33 73 4 77 28 5 28 -40 0 -56 4 -61 15 -7 19 -26 20
-26 0 0 -10 -15 -15 -55 -17 -30 -2 -55 -7 -55 -13 0 -5 25 -11 55 -13 54 -3
55 -4 55 -32 0 -27 -3 -30 -30 -30 -16 0 -30 -4 -30 -10 0 -15 -63 -12 -86 4
-13 10 -23 11 -32 4 -19 -17 24 -42 73 -43 31 0 40 -4 43 -19 3 -16 -1 -18
-33 -14 -35 4 -40 0 -94 -59 -70 -79 -93 -86 -251 -75 -16 1 -45 25 -87 69
-56 61 -65 67 -98 65 -30 -2 -36 0 -33 15 2 14 13 18 43 19 27 1 61 13 105 39
55 33 76 39 136 43 57 3 78 0 111 -17 38 -19 53 -19 53 0 0 5 -19 18 -41 30
-35 18 -55 20 -123 17 -73 -4 -88 -8 -153 -46 -70 -41 -125 -53 -138 -32 -3 6
-17 10 -31 10 -20 0 -24 5 -24 30 0 28 1 29 55 32 30 2 55 8 55 13 0 6 -25 11
-55 13 -40 2 -55 7 -55 17 0 20 -19 19 -26 0z m64 -142 c2 -9 -11 -13 -47 -13
-39 0 -51 4 -51 16 0 12 10 14 47 12 26 -2 48 -9 51 -15z m742 2 c0 -11 -12
-15 -50 -15 -46 0 -60 7 -43 23 3 4 26 7 50 7 32 0 43 -4 43 -15z m-740 -58
c0 -41 -70 -68 -91 -36 -22 35 -11 49 41 49 35 0 50 -4 50 -13z m740 -4 c0
-30 -16 -45 -46 -45 -27 0 -54 24 -54 49 0 9 15 13 50 13 41 0 50 -3 50 -17z
m-551 -122 l23 -18 -31 -13 c-29 -11 -31 -16 -31 -61 0 -37 -4 -49 -15 -49
-21 0 -21 102 1 135 19 30 22 30 53 6z m151 -45 c0 -14 5 -28 10 -31 6 -3 10
-13 10 -21 0 -10 -12 -14 -40 -14 -28 0 -40 4 -40 14 0 8 5 18 10 21 6 3 10
17 10 31 0 17 5 24 20 24 15 0 20 -7 20 -24z m-3 -119 c1 -21 -3 -27 -18 -27
-15 0 -19 7 -19 31 0 23 4 30 17 27 11 -2 18 -14 20 -31z m13 -77 c0 -16 -7
-20 -30 -20 -23 0 -30 4 -30 20 0 16 7 20 30 20 23 0 30 -4 30 -20z"/>
<path d="M566 934 c-19 -18 -21 -65 -4 -82 8 -8 49 -12 120 -12 107 0 109 0
120 26 10 21 9 31 -3 52 -13 24 -21 27 -69 27 -73 0 -80 -23 -8 -27 46 -3 53
-6 56 -25 2 -13 0 -23 -5 -23 -4 -1 -48 -1 -98 -2 l-90 -1 -3 26 c-3 24 0 27
27 27 21 0 31 5 31 15 0 20 -54 20 -74 -1z"/>
<path d="M453 525 c-28 -19 -30 -56 -5 -78 26 -24 47 -21 72 10 31 39 24 77
-15 81 -16 1 -40 -4 -52 -13z m57 -23 c0 -5 -6 -17 -14 -28 -11 -15 -17 -16
-27 -7 -16 16 -4 43 21 43 11 0 20 -4 20 -8z"/>
<path d="M827 533 c-24 -23 17 -103 52 -103 24 0 51 31 51 58 0 11 -10 28 -22
36 -23 16 -69 21 -81 9z m57 -29 c19 -7 21 -30 4 -40 -6 -4 -17 1 -25 11 -23
32 -15 43 21 29z"/>
<path d="M252 474 c-28 -19 -28 -55 -1 -80 19 -17 23 -17 47 -3 29 16 49 57
39 83 -8 21 -56 21 -85 0z m58 -28 c0 -18 -27 -39 -40 -31 -14 9 -13 32 3 38
23 10 37 7 37 -7z"/>
<path d="M1023 474 c-10 -26 10 -67 39 -83 24 -14 28 -14 47 3 27 25 27 61 -1
80 -29 21 -77 21 -85 0z m61 -20 c18 -7 21 -30 6 -39 -13 -8 -40 13 -40 31 0
15 10 17 34 8z"/>
<path d="M423 350 c-35 -14 -47 -47 -28 -76 32 -48 95 -18 98 48 2 28 -1 33
-23 35 -14 1 -35 -2 -47 -7z m47 -26 c0 -15 -22 -44 -34 -44 -21 0 -27 28 -8
39 19 11 42 14 42 5z"/>
<path d="M865 350 c-10 -17 5 -66 25 -85 39 -35 104 10 80 55 -18 33 -91 53
-105 30z m65 -30 c21 -11 17 -40 -6 -40 -12 0 -34 29 -34 44 0 9 19 7 40 -4z"/>
</g>
</svg>
