<?xml version="1.0" standalone="no"?>
<!DOCTYPE svg PUBLIC "-//W3C//DTD SVG 20010904//EN"
 "http://www.w3.org/TR/2001/REC-SVG-20010904/DTD/svg10.dtd">
<svg version="1.0" xmlns="http://www.w3.org/2000/svg"
 width="151.000000pt" height="122.000000pt" viewBox="0 0 151.000000 122.000000"
 preserveAspectRatio="xMidYMid meet">
<metadata>
Created by potrace 1.10, written by Peter Selinger 2001-2011
</metadata>
<g transform="translate(0.000000,122.000000) scale(0.100000,-0.100000)"
fill="#000000" stroke="none">
<path d="M531 1106 c-7 -8 -11 -30 -9 -48 3 -28 7 -33 32 -36 27 -3 28 -5 22
-45 -3 -23 -8 -78 -12 -122 -3 -44 -12 -87 -19 -95 -6 -8 -17 -30 -25 -47 -18
-47 -58 -46 -94 2 -25 32 -31 35 -80 35 -57 0 -76 -12 -76 -46 0 -14 -8 -25
-20 -29 -30 -10 -46 -40 -70 -134 -12 -47 -30 -97 -41 -113 -60 -84 -13 -205
86 -224 54 -10 124 29 150 84 15 31 26 42 42 42 15 0 23 -6 23 -18 0 -32 22
-42 90 -42 68 0 90 10 90 42 0 13 8 18 30 18 23 0 30 -5 30 -19 0 -23 55 -72
73 -65 7 2 30 -7 51 -21 47 -32 85 -32 132 0 20 14 47 25 59 25 30 0 71 48 79
91 4 21 13 42 21 49 20 16 20 99 1 106 -15 6 -30 48 -27 76 1 9 -3 19 -9 23
-5 3 -10 39 -10 81 0 63 -3 76 -20 86 -18 12 -20 24 -20 134 0 113 1 122 20
127 15 4 20 14 20 39 0 19 -5 39 -12 46 -18 18 -78 16 -78 -3 0 -10 10 -15 30
-15 23 0 30 -4 30 -20 0 -19 -7 -20 -235 -20 -227 0 -235 1 -235 20 0 19 8 20
185 22 250 4 248 22 -4 26 -155 2 -190 0 -200 -12z m105 -138 c-3 -29 -8 -86
-12 -125 -5 -55 -10 -73 -22 -73 -12 0 -14 14 -8 93 10 129 16 157 33 157 12
0 14 -10 9 -52z m284 -73 l0 -125 -136 0 -136 0 6 88 c4 48 9 104 12 125 l6
37 124 0 124 0 0 -125z m60 0 c0 -104 -2 -125 -15 -125 -13 0 -15 21 -15 125
0 104 2 125 15 125 13 0 15 -21 15 -125z m38 -209 c3 -54 2 -56 -20 -52 -36 7
-75 24 -83 35 -11 20 -73 12 -110 -13 -20 -14 -43 -22 -51 -19 -21 8 -83 -53
-77 -76 2 -9 -7 -33 -21 -54 -31 -46 -33 -86 -5 -118 l21 -24 -23 -3 c-12 -2
-32 2 -44 8 -22 12 -95 9 -177 -5 -34 -6 -38 -5 -43 18 -4 13 -22 40 -41 58
-32 31 -41 34 -93 34 -50 0 -57 2 -53 18 4 15 21 17 176 17 120 0 176 4 184
12 17 17 15 73 -2 87 -19 16 -189 18 -194 3 -2 -8 25 -12 85 -14 88 -3 88 -3
91 -30 l3 -28 -166 0 c-148 0 -166 2 -161 16 3 9 6 22 6 30 0 10 14 14 56 14
39 0 54 4 52 12 -3 8 -20 11 -46 9 -41 -2 -57 11 -26 23 9 3 73 6 143 6 l128
0 20 48 20 47 224 -1 224 -2 3 -56z m-613 14 c18 -20 17 -20 -43 -20 -55 0
-62 2 -62 20 0 17 7 20 43 20 31 0 49 -6 62 -20z m529 -76 c25 -14 49 -23 54
-20 11 7 55 -38 46 -47 -3 -3 5 -27 20 -53 25 -45 35 -94 18 -94 -8 0 -36 -66
-37 -86 -1 -23 -26 -41 -76 -54 -28 -8 -53 -20 -56 -27 -7 -18 -60 -16 -67 2
-3 8 -14 15 -25 15 -11 0 -23 5 -26 10 -4 6 -15 10 -24 8 -23 -4 -51 19 -51
42 0 26 -29 90 -40 90 -13 0 -13 57 0 62 5 2 18 27 28 56 20 56 35 77 55 77
21 1 87 29 87 37 0 16 49 7 94 -18z m-605 -209 c37 -42 40 -85 12 -131 -55
-90 -201 -47 -201 59 0 64 44 106 111 107 41 0 51 -4 78 -35z m261 -88 c0 -22
-4 -24 -60 -24 -56 0 -60 2 -60 24 0 22 4 23 60 23 56 0 60 -1 60 -23z"/>
<path d="M593 689 c-12 -32 -10 -49 7 -49 8 0 30 53 30 71 0 22 -27 6 -37 -22z"/>
<path d="M662 688 c-13 -34 -2 -58 16 -36 6 7 13 25 17 41 10 40 -17 36 -33
-5z"/>
<path d="M804 576 c-108 -47 -107 -214 2 -267 104 -50 214 20 214 135 0 44 -9
66 -26 66 -10 0 -12 -12 -7 -50 7 -60 -7 -92 -53 -120 -41 -26 -83 -25 -125 3
-76 51 -78 145 -3 202 26 20 99 19 130 -1 18 -12 28 -14 36 -6 17 17 -49 52
-97 52 -22 -1 -54 -7 -71 -14z"/>
<path d="M823 505 c-46 -32 -36 -113 16 -135 57 -23 111 14 111 75 0 61 -75
96 -127 60z m85 -27 c7 -7 12 -24 12 -38 0 -48 -45 -67 -82 -33 -36 32 -17 83
32 83 14 0 31 -5 38 -12z"/>
<path d="M208 406 c-10 -7 -22 -25 -28 -40 -31 -82 94 -135 135 -57 36 70 -46
144 -107 97z m76 -32 c32 -32 13 -74 -34 -74 -30 0 -50 16 -50 41 0 23 27 49
50 49 10 0 26 -7 34 -16z"/>
</g>
</svg>
