<?xml version="1.0" standalone="no"?>
<!DOCTYPE svg PUBLIC "-//W3C//DTD SVG 20010904//EN"
 "http://www.w3.org/TR/2001/REC-SVG-20010904/DTD/svg10.dtd">
<svg version="1.0" xmlns="http://www.w3.org/2000/svg"
 width="245.000000pt" height="127.000000pt" viewBox="0 0 245.000000 127.000000"
 preserveAspectRatio="xMidYMid meet">
<metadata>
Created by potrace 1.10, written by Peter Selinger 2001-2011
</metadata>
<g transform="translate(0.000000,127.000000) scale(0.100000,-0.100000)"
fill="#000000" stroke="none">
<path d="M2400 1230 c0 -13 7 -20 20 -20 13 0 20 7 20 20 0 13 -7 20 -20 20
-13 0 -20 -7 -20 -20z"/>
<path d="M403 1005 c-13 -9 -23 -25 -23 -35 0 -14 -8 -20 -32 -22 -18 -2 -33
-7 -33 -13 0 -10 50 -20 150 -32 40 -4 59 -13 98 -49 38 -34 57 -44 84 -44 40
0 42 23 1 28 -14 2 -44 23 -69 48 -40 40 -47 44 -94 44 -58 0 -78 10 -73 36 3
17 15 19 147 22 l143 3 55 -31 c42 -24 64 -30 96 -28 54 4 50 21 -5 29 -24 3
-61 16 -83 30 -37 22 -52 24 -190 27 -126 3 -154 1 -172 -13z"/>
<path d="M930 945 c0 -12 16 -15 85 -15 69 0 85 3 85 15 0 12 -16 15 -85 15
-69 0 -85 -3 -85 -15z"/>
<path d="M180 930 c-14 -14 -18 -28 -14 -45 5 -21 2 -25 -14 -25 -27 0 -52
-26 -52 -54 0 -31 30 -56 68 -56 29 0 32 -2 26 -24 -4 -17 1 -31 17 -47 15
-15 22 -33 20 -51 -4 -46 36 -58 188 -58 84 0 132 4 137 11 14 23 -24 29 -156
28 l-135 -2 0 24 c0 23 3 24 83 27 63 2 82 6 82 17 0 11 -22 15 -102 17 -102
3 -103 3 -103 28 0 25 1 25 103 28 82 2 102 6 102 17 0 13 -24 15 -145 15
-121 0 -147 3 -151 15 -4 8 -1 22 6 30 10 12 41 15 152 15 107 0 139 3 135 13
-2 8 -35 12 -111 14 -109 1 -134 9 -123 37 4 11 19 16 47 16 29 0 40 4 40 15
0 24 -75 20 -100 -5z"/>
<path d="M484 765 c-19 -30 -14 -48 20 -71 24 -15 28 -15 51 0 44 29 26 96
-25 96 -20 0 -35 -8 -46 -25z m66 -24 c0 -27 -19 -36 -37 -18 -18 18 -9 37 18
37 12 0 19 -7 19 -19z"/>
<path d="M831 632 c-13 -9 -45 -19 -70 -22 -32 -3 -46 -10 -46 -20 0 -21 69
-15 118 11 31 16 58 19 153 19 88 0 115 3 112 13 -3 8 -39 13 -124 14 -98 2
-123 -1 -143 -15z"/>
<path d="M603 623 c-21 -8 -16 -61 7 -73 38 -21 80 22 60 61 -10 18 -40 24
-67 12z"/>
<path d="M551 471 c-12 -12 -21 -26 -21 -31 0 -7 -7 -7 -20 0 -12 6 -33 10
-48 8 -21 -2 -28 -9 -30 -31 -4 -37 23 -67 60 -67 21 0 28 -5 28 -20 0 -17 -7
-20 -44 -20 -53 0 -83 -19 -228 -146 -62 -55 -115 -94 -127 -94 -12 0 -21 -6
-21 -15 0 -13 56 -15 467 -13 362 2 467 6 471 15 2 7 -4 13 -15 13 -10 0 -51
29 -92 64 -68 59 -91 71 -91 46 0 -5 27 -32 61 -60 l60 -50 -388 0 -388 1 26
22 c15 12 64 54 110 93 119 101 114 99 257 96 129 -2 133 -4 218 -67 7 -5 16
-6 20 -2 11 10 -25 45 -75 75 -36 21 -56 25 -117 25 l-74 0 0 29 c0 25 3 28
33 28 43 0 78 36 80 82 2 33 1 33 -45 36 -37 2 -51 -1 -67 -17z m89 -14 c0
-27 -31 -57 -61 -57 -33 0 -38 19 -11 42 31 28 72 36 72 15z m-126 -59 c5 -9
7 -20 3 -24 -11 -11 -57 14 -57 31 0 21 39 16 54 -7z"/>
<path d="M462 228 c-15 -15 -15 -51 0 -66 15 -15 51 -15 66 0 28 28 7 78 -33
78 -12 0 -26 -5 -33 -12z"/>
<path d="M607 202 c-22 -24 -21 -55 1 -75 37 -33 92 -11 92 37 0 48 -62 73
-93 38z m61 -40 c3 -16 -2 -22 -17 -22 -24 0 -35 15 -27 36 9 23 40 13 44 -14z"/>
</g>
</svg>
