<?xml version="1.0" standalone="no"?>
<!DOCTYPE svg PUBLIC "-//W3C//DTD SVG 20010904//EN"
 "http://www.w3.org/TR/2001/REC-SVG-20010904/DTD/svg10.dtd">
<svg version="1.0" xmlns="http://www.w3.org/2000/svg"
 width="300.000000pt" height="100.000000pt" viewBox="0 0 300.000000 100.000000"
 preserveAspectRatio="xMidYMid meet">
<metadata>
Created by potrace 1.10, written by Peter Selinger 2001-2011
</metadata>
<g transform="translate(0.000000,100.000000) scale(0.100000,-0.100000)"
fill="#000000" stroke="none">
<path d="M1175 500 c0 -278 1 -391 2 -253 2 139 2 367 0 505 -1 139 -2 26 -2
-252z"/>
<path d="M704 922 c-16 -10 -114 -141 -114 -153 0 -24 24 -3 70 60 28 38 57
72 66 75 26 10 54 -12 54 -43 0 -22 -10 -35 -55 -65 -30 -21 -72 -58 -95 -82
-22 -24 -43 -44 -47 -44 -3 0 -15 8 -25 17 -18 16 -18 17 4 40 16 18 18 23 6
23 -16 0 -48 -31 -48 -47 0 -21 -48 -55 -69 -48 -11 3 -29 2 -39 -4 -15 -8
-25 -4 -52 24 -19 19 -42 35 -52 35 -18 0 -117 -124 -118 -147 0 -27 18 -11
61 52 24 35 51 65 58 65 15 0 71 -48 71 -60 0 -4 -22 -44 -49 -90 -39 -66 -48
-87 -40 -102 5 -10 18 -18 29 -18 23 0 90 38 90 51 0 14 -16 11 -55 -12 -20
-12 -39 -19 -42 -15 -14 14 102 196 124 196 23 0 73 -50 73 -72 0 -11 -14 -26
-31 -36 -50 -28 -64 -40 -57 -48 5 -4 24 1 43 12 l34 18 31 -29 c16 -16 30
-34 30 -41 0 -31 -232 -175 -346 -213 -150 -51 -172 13 -74 211 22 43 40 84
40 89 0 48 -89 -110 -115 -206 -20 -72 -11 -106 35 -130 35 -18 71 -11 175 32
111 46 300 171 311 206 4 13 -4 30 -29 56 -30 32 -34 41 -30 76 5 41 36 85 59
85 7 0 30 20 50 45 21 24 62 61 91 81 61 42 83 69 83 99 0 44 -70 81 -106 57z
m-168 -291 c-20 -20 -28 -23 -38 -13 -18 18 29 67 49 50 12 -9 10 -16 -11 -37z"/>
<path d="M2952 783 c2 -10 10 -18 18 -18 22 0 18 29 -3 33 -14 3 -18 -1 -15
-15z"/>
</g>
</svg>
