<?xml version="1.0" standalone="no"?>
<!DOCTYPE svg PUBLIC "-//W3C//DTD SVG 20010904//EN"
 "http://www.w3.org/TR/2001/REC-SVG-20010904/DTD/svg10.dtd">
<svg version="1.0" xmlns="http://www.w3.org/2000/svg"
 width="142.000000pt" height="120.000000pt" viewBox="0 0 142.000000 120.000000"
 preserveAspectRatio="xMidYMid meet">
<metadata>
Created by potrace 1.10, written by Peter Selinger 2001-2011
</metadata>
<g transform="translate(0.000000,120.000000) scale(0.100000,-0.100000)"
fill="#000000" stroke="none">
<path d="M800 1065 c0 -12 13 -15 60 -15 l61 0 -7 -37 c-15 -82 -64 -113 -179
-113 l-77 0 6 32 c9 45 32 76 72 100 25 15 32 24 24 32 -15 15 -76 -20 -100
-59 -12 -19 -20 -50 -20 -74 l0 -42 -30 16 c-21 11 -51 15 -93 13 l-62 -3 0
-54 c1 -47 5 -57 33 -82 28 -25 40 -29 93 -29 56 0 60 -1 57 -22 -2 -17 -13
-24 -58 -33 -81 -16 -128 -43 -189 -104 -43 -43 -62 -56 -99 -63 -49 -9 -68
-20 -58 -36 4 -6 20 -5 43 4 57 20 111 17 209 -11 62 -18 108 -25 155 -24 90
3 124 -24 83 -65 -12 -12 -37 -16 -101 -16 -63 0 -84 -3 -80 -12 3 -10 39 -13
133 -14 l129 -1 86 84 c86 84 119 101 127 61 3 -17 -156 -211 -189 -228 -27
-15 -265 -60 -314 -60 -26 0 -67 13 -113 35 l-72 34 -140 -76 c-77 -41 -140
-82 -140 -89 0 -8 3 -14 7 -14 3 0 64 32 134 70 71 39 133 70 138 70 5 0 38
-13 73 -30 44 -21 78 -30 114 -30 66 0 290 45 329 66 42 22 205 221 205 249 0
32 -34 59 -67 52 -23 -4 -35 3 -76 44 -56 57 -124 96 -140 80 -7 -7 2 -15 27
-27 42 -20 47 -33 11 -26 -18 3 -25 0 -25 -12 0 -12 10 -16 48 -16 42 0 50 -4
76 -36 l28 -36 -68 -69 c-72 -72 -110 -89 -98 -45 16 66 -34 97 -154 96 -48
-1 -93 4 -121 14 -24 9 -56 16 -72 16 -18 0 -29 5 -29 13 0 23 35 47 68 47 32
0 46 24 20 32 -6 2 17 15 53 28 48 19 81 24 132 23 52 -2 67 1 67 12 0 8 -13
15 -32 17 l-33 3 -3 83 -3 82 83 0 c123 0 178 36 199 129 15 67 2 81 -76 81
-51 0 -65 -3 -65 -15z m-200 -185 c16 -9 40 -64 40 -92 0 -5 -25 -8 -55 -8
-46 0 -60 4 -80 25 -16 15 -25 36 -25 55 0 29 1 30 51 30 28 0 59 -5 69 -10z"/>
<path d="M633 618 c2 -7 12 -13 22 -13 10 0 20 6 23 13 2 7 -6 12 -23 12 -17
0 -25 -5 -22 -12z"/>
<path d="M570 555 c0 -13 9 -16 48 -13 26 2 47 8 47 13 0 6 -21 11 -47 13 -39
3 -48 0 -48 -13z"/>
<path d="M814 509 c-10 -17 13 -36 27 -22 12 12 4 33 -11 33 -5 0 -12 -5 -16
-11z"/>
<path d="M113 460 c-56 -26 -81 -50 -53 -50 25 0 140 55 140 67 0 19 -17 15
-87 -17z"/>
</g>
</svg>
